<svg xmlns="http://www.w3.org/2000/svg" style="display: none;"><symbol id="coding" viewBox="0 -44 512.00002 512"><title>coding</title><path d="m205.484375 355.09375h101.03125v55.863281h-101.03125zm0 0" fill="#2c6a9b"/><path d="m205.488281 355.09375h101.023438v17.386719h-101.023438zm0 0" fill="#1a5a84"/><path d="m354.214844 424.726562h-196.429688c-5.144531 0-9.316406-4.171874-9.316406-9.316406 0-5.144531 4.171875-9.3125 9.316406-9.3125h196.429688c5.144531 0 9.3125 4.167969 9.3125 9.3125 0 5.144532-4.167969 9.316406-9.3125 9.316406zm0 0" fill="#dceeef"/><path d="m512 15.761719v331.792969c0 5.808593-4.707031 10.507812-10.519531 10.507812h-490.960938c-5.8125 0-10.519531-4.699219-10.519531-10.507812v-331.792969c0-8.703125 7.066406-15.761719 15.773438-15.761719h480.453124c8.714844 0 15.773438 7.058594 15.773438 15.761719zm0 0" fill="#dceeef"/><path d="m512 15.761719v331.789062c0 5.816407-4.707031 10.511719-10.511719 10.511719h-22.875c5.804688 0 10.511719-4.695312 10.511719-10.511719v-331.789062c0-8.699219-7.058594-15.75781275-15.769531-15.75781275h22.875c8.710937 0 15.769531 7.05859375 15.769531 15.75781275zm0 0" fill="#bcdde2"/><path d="m282.320312 77.8125h229.679688v134.550781h-229.679688zm0 0" fill="#3bc3ff"/><path d="m489.125 77.8125h22.875v134.550781h-22.875zm0 0" fill="#009af2"/><path d="m452.0625 151.160156c1.9375 2.660156 2.484375 6.085938 1.476562 9.21875l-14.1875 44.019532-2.574218 7.964843h-118.6875l8.71875-23.089843c.265625-.695313.601562-1.363282 1.007812-1.988282l4.675782-7.164062c3.054687-4.683594 1.8125-10.945313-2.792969-14.113282l-27.335938-18.804687c-1.375-.945313-2.964843-1.542969-4.625-1.742187l-15.417969-1.820313v-65.832031h162.964844l-11.535156 21.8125c-1.667969 3.148437-4.84375 5.214844-8.402344 5.460937l-49.808594 3.421875c-2.097656.144532-4.101562.929688-5.742187 2.246094l-18.152344 14.578125c-3.636719 2.917969-4.859375 7.914063-2.980469 12.183594l4.640626 10.539062c1.898437 4.316407 6.492187 6.792969 11.140624 6.007813l73.632813-12.417969c3.851563-.652344 7.742187.9375 10.042969 4.097656zm0 0" fill="#8dffa2"/><path d="m282.320312 0v358.0625h-271.800781c-5.8125 0-10.519531-4.699219-10.519531-10.507812v-331.792969c0-8.703125 7.066406-15.761719 15.773438-15.761719zm0 0" fill="#4c94c3"/><path d="m512 15.761719v22.5h-512v-22.5c0-8.703125 7.066406-15.761719 15.773438-15.761719h480.453124c8.714844 0 15.773438 7.058594 15.773438 15.761719zm0 0" fill="#8bc1c6"/><path d="m512 307.648438v39.902343c0 5.816407-4.707031 10.511719-10.511719 10.511719h-490.976562c-5.804688 0-10.511719-4.695312-10.511719-10.511719v-39.902343zm0 0" fill="#3b7ca8"/><path d="m512 307.648438v39.902343c0 5.816407-4.707031 10.511719-10.511719 10.511719h-22.875c5.804688 0 10.511719-4.695312 10.511719-10.511719v-39.902343zm0 0" fill="#2c6a9b"/><path d="m49.511719 92.003906h-.472657c-4.265624 0-7.722656-3.460937-7.722656-7.726562s3.457032-7.726563 7.722656-7.726563h.472657c4.269531 0 7.726562 3.460938 7.726562 7.726563s-3.457031 7.726562-7.726562 7.726562zm0 0" fill="#ff8980"/><path d="m102.503906 92.003906h-28.847656c-4.265625 0-7.722656-3.460937-7.722656-7.726562s3.457031-7.726563 7.722656-7.726563h28.847656c4.265625 0 7.726563 3.460938 7.726563 7.726563s-3.460938 7.726562-7.726563 7.726562zm0 0" fill="#ff8980"/><g fill="#8dffa2"><path d="m49.511719 117.484375h-.472657c-4.265624 0-7.722656-3.457031-7.722656-7.726563 0-4.265624 3.457032-7.726562 7.722656-7.726562h.472657c4.269531 0 7.726562 3.460938 7.726562 7.726562 0 4.269532-3.457031 7.726563-7.726562 7.726563zm0 0"/><path d="m138.214844 117.484375h-64.558594c-4.265625 0-7.722656-3.457031-7.722656-7.726563 0-4.265624 3.457031-7.726562 7.722656-7.726562h64.558594c4.269531 0 7.726562 3.460938 7.726562 7.726562 0 4.269532-3.457031 7.726563-7.726562 7.726563zm0 0"/><path d="m49.511719 142.96875h-.472657c-4.265624 0-7.722656-3.460938-7.722656-7.726562 0-4.269532 3.457032-7.726563 7.722656-7.726563h.472657c4.269531 0 7.726562 3.457031 7.726562 7.726563 0 4.265624-3.457031 7.726562-7.726562 7.726562zm0 0"/><path d="m120.359375 142.96875h-46.703125c-4.265625 0-7.722656-3.460938-7.722656-7.726562 0-4.269532 3.457031-7.726563 7.722656-7.726563h46.703125c4.269531 0 7.726563 3.457031 7.726563 7.726563 0 4.265624-3.457032 7.726562-7.726563 7.726562zm0 0"/><path d="m49.511719 168.449219h-.472657c-4.265624 0-7.722656-3.460938-7.722656-7.726563s3.457032-7.726562 7.722656-7.726562h.472657c4.269531 0 7.726562 3.460937 7.726562 7.726562s-3.457031 7.726563-7.726562 7.726563zm0 0"/><path d="m191.785156 168.449219h-74.859375c-4.269531 0-7.726562-3.460938-7.726562-7.726563s3.460937-7.726562 7.726562-7.726562h74.859375c4.269532 0 7.726563 3.460937 7.726563 7.726562s-3.457031 7.726563-7.726563 7.726563zm0 0"/><path d="m95.636719 168.449219h-21.980469c-4.265625 0-7.722656-3.460938-7.722656-7.726563s3.457031-7.726562 7.722656-7.726562h21.980469c4.265625 0 7.722656 3.460937 7.722656 7.726562s-3.457031 7.726563-7.722656 7.726563zm0 0"/></g><path d="m49.511719 193.929688h-.472657c-4.265624 0-7.722656-3.457032-7.722656-7.726563 0-4.265625 3.457032-7.726563 7.722656-7.726563h.472657c4.269531 0 7.726562 3.460938 7.726562 7.726563 0 4.269531-3.457031 7.726563-7.726562 7.726563zm0 0" fill="#8df4ff"/><path d="m138.214844 193.929688h-64.558594c-4.265625 0-7.722656-3.457032-7.722656-7.726563 0-4.265625 3.457031-7.726563 7.722656-7.726563h64.558594c4.269531 0 7.726562 3.460938 7.726562 7.726563 0 4.269531-3.457031 7.726563-7.726562 7.726563zm0 0" fill="#8df4ff"/><path d="m49.511719 219.410156h-.472657c-4.265624 0-7.722656-3.457031-7.722656-7.722656 0-4.269531 3.457032-7.726562 7.722656-7.726562h.472657c4.269531 0 7.726562 3.457031 7.726562 7.726562 0 4.265625-3.457031 7.722656-7.726562 7.722656zm0 0" fill="#8df4ff"/><path d="m138.214844 219.410156h-64.558594c-4.265625 0-7.722656-3.457031-7.722656-7.722656 0-4.269531 3.457031-7.726562 7.722656-7.726562h64.558594c4.269531 0 7.726562 3.457031 7.726562 7.726562 0 4.265625-3.457031 7.722656-7.726562 7.722656zm0 0" fill="#8df4ff"/><path d="m49.511719 244.894531h-.472657c-4.265624 0-7.722656-3.460937-7.722656-7.726562s3.457032-7.726563 7.722656-7.726563h.472657c4.269531 0 7.726562 3.460938 7.726562 7.726563s-3.457031 7.726562-7.726562 7.726562zm0 0" fill="#ff8980"/><path d="m197.519531 244.894531h-24.964843c-4.269532 0-7.726563-3.460937-7.726563-7.726562s3.460937-7.726563 7.726563-7.726563h24.964843c4.269531 0 7.726563 3.460938 7.726563 7.726563s-3.457032 7.726562-7.726563 7.726562zm0 0" fill="#ff8980"/><path d="m149.890625 244.894531h-76.234375c-4.265625 0-7.722656-3.460937-7.722656-7.726562s3.457031-7.726563 7.722656-7.726563h76.234375c4.269531 0 7.726563 3.460938 7.726563 7.726563s-3.457032 7.726562-7.726563 7.726562zm0 0" fill="#ff8980"/><path d="m49.511719 270.375h-.472657c-4.265624 0-7.722656-3.457031-7.722656-7.726562 0-4.265626 3.457032-7.722657 7.722656-7.722657h.472657c4.269531 0 7.726562 3.457031 7.726562 7.722657 0 4.269531-3.457031 7.726562-7.726562 7.726562zm0 0" fill="#ff8980"/><path d="m138.214844 270.375h-64.558594c-4.265625 0-7.722656-3.457031-7.722656-7.726562 0-4.265626 3.457031-7.722657 7.722656-7.722657h64.558594c4.269531 0 7.726562 3.457031 7.726562 7.722657 0 4.269531-3.457031 7.726562-7.726562 7.726562zm0 0" fill="#ff8980"/><path d="m162.832031 270.375h-.472656c-4.265625 0-7.722656-3.457031-7.722656-7.726562 0-4.265626 3.457031-7.722657 7.722656-7.722657h.472656c4.269531 0 7.726563 3.457031 7.726563 7.722657 0 4.269531-3.457032 7.726562-7.726563 7.726562zm0 0" fill="#ff8980"/><path d="m127.011719 92.003906h-.472657c-4.265624 0-7.726562-3.460937-7.726562-7.726562s3.460938-7.726563 7.726562-7.726563h.472657c4.269531 0 7.726562 3.460938 7.726562 7.726563s-3.457031 7.726562-7.726562 7.726562zm0 0" fill="#ff8980"/><path d="m141.394531 142.96875h-.46875c-4.269531 0-7.726562-3.460938-7.726562-7.726562 0-4.269532 3.457031-7.726563 7.726562-7.726563h.46875c4.269531 0 7.726563 3.457031 7.726563 7.726563 0 4.265624-3.457032 7.726562-7.726563 7.726562zm0 0" fill="#8dffa2"/><path d="m183.484375 270.375h-.472656c-4.269531 0-7.726563-3.457031-7.726563-7.726562 0-4.265626 3.460938-7.722657 7.726563-7.722657h.472656c4.269531 0 7.726563 3.457031 7.726563 7.722657 0 4.269531-3.457032 7.726562-7.726563 7.726562zm0 0" fill="#ff8980"/><path d="m224.03125 244.894531h-.472656c-4.269532 0-7.726563-3.460937-7.726563-7.726562s3.460938-7.726563 7.726563-7.726563h.472656c4.269531 0 7.726562 3.460938 7.726562 7.726563s-3.457031 7.726562-7.726562 7.726562zm0 0" fill="#ff8980"/><path d="m162.597656 219.78125h-.472656c-4.269531 0-7.726562-3.457031-7.726562-7.722656 0-4.269532 3.460937-7.726563 7.726562-7.726563h.472656c4.265625 0 7.726563 3.457031 7.726563 7.726563 0 4.265625-3.460938 7.722656-7.726563 7.722656zm0 0" fill="#8df4ff"/><path d="m162.597656 193.929688h-.472656c-4.269531 0-7.726562-3.457032-7.726562-7.726563 0-4.265625 3.460937-7.726563 7.726562-7.726563h.472656c4.265625 0 7.726563 3.460938 7.726563 7.726563 0 4.269531-3.460938 7.726563-7.726563 7.726563zm0 0" fill="#8df4ff"/><path d="m183.484375 219.78125h-.472656c-4.269531 0-7.726563-3.457031-7.726563-7.722656 0-4.269532 3.460938-7.726563 7.726563-7.726563h.472656c4.269531 0 7.726563 3.457031 7.726563 7.726563 0 4.265625-3.457032 7.722656-7.726563 7.722656zm0 0" fill="#8df4ff"/><path d="m204.371094 219.78125h-.472656c-4.265626 0-7.726563-3.457031-7.726563-7.722656 0-4.269532 3.460937-7.726563 7.726563-7.726563h.472656c4.269531 0 7.726562 3.457031 7.726562 7.726563 0 4.265625-3.457031 7.722656-7.726562 7.722656zm0 0" fill="#8df4ff"/><path d="m225.261719 219.78125h-.472657c-4.269531 0-7.726562-3.457031-7.726562-7.722656 0-4.269532 3.457031-7.726563 7.726562-7.726563h.472657c4.265625 0 7.722656 3.457031 7.722656 7.726563 0 4.265625-3.457031 7.722656-7.722656 7.722656zm0 0" fill="#8df4ff"/><path d="m484.386719 244.894531h-145.210938c-4.269531 0-7.726562-3.460937-7.726562-7.726562s3.460937-7.726563 7.726562-7.726563h145.210938c4.265625 0 7.722656 3.460938 7.722656 7.726563.003906 4.265625-3.457031 7.726562-7.722656 7.726562zm0 0" fill="#4c94c3"/><path d="m317.363281 244.894531h-7.429687c-4.265625 0-7.722656-3.460937-7.722656-7.726562s3.457031-7.726563 7.722656-7.726563h7.429687c4.269531 0 7.726563 3.460938 7.726563 7.726563.003906 4.265625-3.457032 7.726562-7.726563 7.726562zm0 0" fill="#4c94c3"/><path d="m455.144531 286.378906h-145.207031c-4.269531 0-7.726562-3.457031-7.726562-7.726562 0-4.265625 3.457031-7.726563 7.726562-7.726563h145.207031c4.269531 0 7.726563 3.460938 7.726563 7.726563s-3.460938 7.726562-7.726563 7.726562zm0 0" fill="#4c94c3"/><path d="m484.386719 286.378906h-7.433594c-4.265625 0-7.722656-3.457031-7.722656-7.726562 0-4.265625 3.457031-7.726563 7.722656-7.726563h7.433594c4.265625 0 7.722656 3.460938 7.722656 7.726563.003906 4.265625-3.457031 7.726562-7.722656 7.726562zm0 0" fill="#4c94c3"/><path d="m484.386719 265.636719h-174.453125c-4.265625 0-7.722656-3.460938-7.722656-7.726563s3.457031-7.726562 7.722656-7.726562h174.453125c4.265625 0 7.722656 3.460937 7.722656 7.726562.003906 4.265625-3.457031 7.726563-7.722656 7.726563zm0 0" fill="#4c94c3"/></symbol><symbol id="responsive" viewBox="0 0 512 512"><title>responsive</title><circle style="fill:#69CDFF;" cx="267" cy="256" r="245"/><rect x="185.72" y="358.53" style="fill:#445EA0;" width="78.71" height="41.23"/><rect x="185.72" y="358.53" style="fill:#2E4C89;" width="19.842" height="41.23"/><path style="fill:#293D7C;" d="M316.856,398.763H127.56c-2.806,0-5.101,2.296-5.101,5.102v25.571c0,2.806,2.296,5.102,5.101,5.102 h189.296L316.856,398.763L316.856,398.763z"/><path style="fill:#1A2B63;" d="M142.301,429.435v-25.571c0-2.806,2.296-5.102,5.102-5.102H127.56c-2.806,0-5.101,2.296-5.101,5.102 v25.571c0,2.806,2.296,5.102,5.101,5.102h19.842C144.597,434.537,142.301,432.241,142.301,429.435z"/><path style="fill:#293D7C;" d="M445.054,58.964H5.102C2.296,58.964,0,61.26,0,64.066V354.43c0,2.807,2.296,5.102,5.102,5.102 h311.754V206.768c0-3.859,3.14-7,7-7h126.3V64.066C450.156,61.26,447.86,58.964,445.054,58.964z"/><path style="fill:#FFFFFF;" d="M22.396,308.514c0,1.684,1.377,3.06,3.061,3.06h291.399V206.768c0-3.859,3.14-7,7-7H427.76v-90.77 H22.396V308.514z"/><path style="fill:#D9EAFC;" d="M42.239,308.514V108.998H22.396v199.516c0,1.684,1.377,3.06,3.061,3.06H45.3 C43.616,311.574,42.239,310.197,42.239,308.514z"/><circle style="fill:#445EA0;" cx="225.08" cy="335.46" r="13.774"/><path style="fill:#C3DDF4;" d="M316.856,223.146h-53.424c-1.65,0-3,1.35-3,3v59.639c0,1.65,1.35,3,3,3h53.424V223.146z"/><path style="fill:#AEC1ED;" d="M280.274,285.785v-59.639c0-1.65,1.35-3,3-3h-19.842c-1.65,0-3,1.35-3,3v59.639c0,1.65,1.35,3,3,3 h19.842C281.624,288.785,280.274,287.435,280.274,285.785z"/><path style="fill:#C3DDF4;" d="M323.856,199.768h46.618v-65.382c0-2.75-2.25-5-5-5H84.682c-2.75,0-5,2.25-5,5v66.525 c0,2.75,2.25,5,5,5h232.233C317.339,202.455,320.288,199.768,323.856,199.768z"/><path style="fill:#AEC1ED;" d="M99.524,200.91v-66.525c0-2.75,2.25-5,5-5H84.682c-2.75,0-5,2.25-5,5v66.525c0,2.75,2.25,5,5,5 h19.842C101.774,205.91,99.524,203.66,99.524,200.91z"/><path style="fill:#FFAF10;" d="M424.699,84.983H25.457c-1.684,0-3.061,1.377-3.061,3.062v21.953H427.76V88.045 C427.76,86.36,426.382,84.983,424.699,84.983z"/><path style="fill:#FF9518;" d="M45.3,84.983H25.457c-1.684,0-3.061,1.377-3.061,3.062v21.953h19.842V88.045 C42.239,86.36,43.616,84.983,45.3,84.983z"/><g> <path style="fill:#5DC1D8;" d="M171.504,238.979h-84.17c-4.142,0-7.5-3.357-7.5-7.5s3.358-7.5,7.5-7.5h84.17 c4.142,0,7.5,3.357,7.5,7.5S175.646,238.979,171.504,238.979z"/> <path style="fill:#5DC1D8;" d="M171.504,263.466h-84.17c-4.142,0-7.5-3.357-7.5-7.5s3.358-7.5,7.5-7.5h84.17 c4.142,0,7.5,3.357,7.5,7.5C179.004,260.108,175.646,263.466,171.504,263.466z"/> <path style="fill:#5DC1D8;" d="M171.504,287.953h-84.17c-4.142,0-7.5-3.357-7.5-7.5s3.358-7.5,7.5-7.5h84.17 c4.142,0,7.5,3.357,7.5,7.5S175.646,287.953,171.504,287.953z"/> <path style="fill:#5DC1D8;" d="M237.56,238.979h-43.326c-4.142,0-7.5-3.357-7.5-7.5s3.358-7.5,7.5-7.5h43.326 c4.142,0,7.5,3.357,7.5,7.5S241.702,238.979,237.56,238.979z"/> <path style="fill:#5DC1D8;" d="M237.56,263.466h-43.326c-4.142,0-7.5-3.357-7.5-7.5s3.358-7.5,7.5-7.5h43.326 c4.142,0,7.5,3.357,7.5,7.5C245.06,260.108,241.702,263.466,237.56,263.466z"/> <path style="fill:#5DC1D8;" d="M237.56,287.953h-43.326c-4.142,0-7.5-3.357-7.5-7.5s3.358-7.5,7.5-7.5h43.326 c4.142,0,7.5,3.357,7.5,7.5S241.702,287.953,237.56,287.953z"/> </g><path style="fill:#445EA0;" d="M504,198.768c4.4,0,8,3.6,8,8v241.77c0,4.4-3.6,8-8,8H323.856c-4.4,0-8-3.6-8-8v-241.77 c0-4.4,3.6-8,8-8L504,198.768L504,198.768z"/><path style="fill:#FFFFFF;" d="M337.567,425.125c-2.75,0-5-2.25-5-5V219.18c0-2.75,2.25-5,5-5H490.29c2.75,0,5,2.25,5,5v200.945 c0,2.75-2.25,5-5,5H337.567z"/><path style="fill:#D9EAFC;" d="M352.409,420.125V219.18c0-2.75,2.25-5,5-5h-19.842c-2.75,0-5,2.25-5,5v200.945c0,2.75,2.25,5,5,5 h19.842C354.659,425.125,352.409,422.875,352.409,420.125z"/><path style="fill:#445EA0;" d="M404.567,445.125c-2.75,0-5-2.25-5-5v-1.945c0-2.75,2.25-5,5-5h18.723c2.75,0,5,2.25,5,5v1.945 c0,2.75-2.25,5-5,5H404.567z"/><path style="fill:#FFAF10;" d="M495.29,233.473V219.18c0-2.75-2.25-5-5-5H337.567c-2.75,0-5,2.25-5,5v14.293L495.29,233.473 L495.29,233.473z"/><path style="fill:#FF9518;" d="M357.409,214.18h-19.842c-2.75,0-5,2.25-5,5v14.293h19.842V219.18 C352.409,216.43,354.659,214.18,357.409,214.18z"/><g> <path style="fill:#5DC1D8;" d="M448.013,324.933h-68.169c-4.142,0-7.5-3.357-7.5-7.5s3.358-7.5,7.5-7.5h68.169 c4.142,0,7.5,3.357,7.5,7.5C455.513,321.575,452.155,324.933,448.013,324.933z"/> <path style="fill:#5DC1D8;" d="M448.013,348.06h-68.169c-4.142,0-7.5-3.357-7.5-7.5c0-4.142,3.358-7.5,7.5-7.5h68.169 c4.142,0,7.5,3.358,7.5,7.5C455.513,344.703,452.155,348.06,448.013,348.06z"/> <path style="fill:#5DC1D8;" d="M448.013,371.185h-68.169c-4.142,0-7.5-3.357-7.5-7.5c0-4.142,3.358-7.5,7.5-7.5h68.169 c4.142,0,7.5,3.358,7.5,7.5C455.513,367.828,452.155,371.185,448.013,371.185z"/> </g><path style="fill:#C3DDF4;" d="M479.756,292.257c0,2.75-2.25,5-5,5H353.101c-2.75,0-5-2.25-5-5v-41.244c0-2.75,2.25-5,5-5h121.655 c2.75,0,5,2.25,5,5V292.257z"/><path style="fill:#AEC1ED;" d="M367.943,292.257v-41.244c0-2.75,2.25-5,5-5h-19.842c-2.75,0-5,2.25-5,5v41.244c0,2.75,2.25,5,5,5 h19.842C370.193,297.257,367.943,295.007,367.943,292.257z"/><path style="fill:#C3DDF4;" d="M461.757,409.416c0,2.75-2.25,5-5,5H371.1c-2.75,0-5-2.25-5-5v-16.91c0-2.75,2.25-5,5-5h85.657 c2.75,0,5,2.25,5,5L461.757,409.416L461.757,409.416z"/><path style="fill:#AEC1ED;" d="M385.942,409.416v-16.91c0-2.75,2.25-5,5-5H371.1c-2.75,0-5,2.25-5,5v16.91c0,2.75,2.25,5,5,5h19.842 C388.192,414.416,385.942,412.166,385.942,409.416z"/></symbol><symbol id="rocket" viewBox="0 0 512.002 512.002"><title>rocket</title><g> <g> <path style="fill:#FF4F19;" d="M317.024,306.849c0.352-3.383,2.797-6.18,6.109-6.965c3.305-0.781,6.758,0.602,8.594,3.469 l49.016,76.629c7.367,11.57,11.258,24.937,11.258,38.656v85.363c0,3.383-2.125,6.398-5.312,7.535 c-0.875,0.312-1.789,0.465-2.688,0.465c-2.352,0-4.641-1.039-6.195-2.934l-70.32-85.949c-1.344-1.648-1.977-3.766-1.766-5.883 L317.024,306.849z"/> </g> <g> <path style="fill:#E9001E;" d="M194.977,306.849c-0.352-3.383-2.797-6.18-6.109-6.965c-3.305-0.781-6.758,0.602-8.594,3.469 l-49.016,76.629c-7.367,11.57-11.258,24.937-11.258,38.656v85.363c0,3.383,2.125,6.398,5.312,7.535 c0.875,0.312,1.789,0.465,2.688,0.465c2.352,0,4.641-1.039,6.195-2.934l70.32-85.949c1.344-1.648,1.977-3.766,1.766-5.883 L194.977,306.849z"/> </g> <g> <path style="fill:#FFD200;" d="M260.118,1.143c-2.531-1.523-5.703-1.523-8.234,0c-3.422,2.055-83.883,51.562-83.883,158.859 c0,43.324,10.766,158.594,25.047,268.125c2.07,15.891,15.703,27.875,31.695,27.875h62.516c15.992,0,29.625-11.984,31.695-27.875 c14.281-109.531,25.047-224.801,25.047-268.125C344.001,52.705,263.54,3.197,260.118,1.143z"/> </g> <g> <path style="fill:#FF9600;" d="M256.001,456.002h-31.258c-15.992,0-29.625-11.984-31.695-27.875 c-14.281-109.531-25.047-224.801-25.047-268.125c0-107.297,80.461-156.805,83.883-158.859c1.261-0.759,2.682-1.138,4.103-1.141 h0.015V456.002z"/> </g> <g> <circle style="fill:#53DCFF;" cx="256.001" cy="168.002" r="48"/> </g> <g> <g> <path style="fill:#FF4F19;" d="M256.001,512.002c-4.422,0-8-3.582-8-8v-192c0-4.418,3.578-8,8-8s8,3.582,8,8v192 C264.001,508.42,260.423,512.002,256.001,512.002z"/> </g> </g> <g> <path style="fill:#FF4F19;" d="M251.884,1.143c-2.288,1.374-38.98,23.989-63.071,70.859h134.376 c-24.091-46.87-60.783-69.486-63.071-70.859C257.587-0.381,254.415-0.381,251.884,1.143z"/> </g> <g> <path style="fill:#E9001E;" d="M256.001,0c-1.426,0-2.852,0.381-4.117,1.143c-2.288,1.374-38.98,23.989-63.071,70.859h67.188V0z"/> </g> <g> <path style="fill:#B3F4FF;" d="M304.001,168.002c0-26.51-21.49-48-48-48v96C282.511,216.002,304.001,194.512,304.001,168.002z"/> </g> </g><g> <g> <path style="fill:#5C546A;" d="M256.001,224.002c-30.875,0-56-25.121-56-56s25.125-56,56-56s56,25.121,56,56 S286.876,224.002,256.001,224.002z M256.001,128.002c-22.055,0-40,17.945-40,40s17.945,40,40,40s40-17.945,40-40 S278.056,128.002,256.001,128.002z"/> </g> </g></symbol></svg>