<svg xmlns="http://www.w3.org/2000/svg" style="display: none;"><symbol id="linkedin" viewBox="0 0 512.002 512.002"><title>linkedin</title><circle style="fill:#4376B1;" cx="256.001" cy="256" r="256"/><path style="fill:#336699;" d="M511.016,233.634L394.729,117.198c-71.035,9.237-145.27,7.859-216.305,9.511 c-29.306,0-58.613,13.791-53.441,46.545c10.343,65.508,15.515,129.293,3.448,196.525c-1.9,8.545-5.897,17.089-11.117,25.059 L233.48,511.005c7.421,0.646,14.929,0.996,22.519,0.996c141.384,0,256-114.616,256-256 C512.001,248.461,511.656,241.005,511.016,233.634z"/><path style="fill:#FFFFFF;" d="M376.023,109.468H135.979c-14.643,0-26.51,11.867-26.51,26.51V376.02 c0,14.639,11.867,26.51,26.51,26.51h240.042c14.639,0,26.51-11.871,26.51-26.51V135.978 C402.533,121.335,390.662,109.468,376.023,109.468L376.023,109.468z M200.155,362.517c0,4.263-3.453,7.716-7.716,7.716h-32.837 c-4.263,0-7.716-3.455-7.716-7.716V224.856c0-4.263,3.455-7.716,7.716-7.716h32.839c4.263,0,7.716,3.455,7.716,7.716v137.661 H200.155z M176.02,204.162c-17.23,0-31.196-13.969-31.196-31.201c0-17.229,13.965-31.196,31.196-31.196 c17.232,0,31.198,13.969,31.198,31.196C207.218,190.195,193.251,204.162,176.02,204.162L176.02,204.162z M371.773,363.139 c0,3.918-3.175,7.096-7.09,7.096h-35.242c-3.915,0-7.092-3.177-7.092-7.096v-64.574c0-9.63,2.826-42.21-25.172-42.21 c-21.719,0-26.124,22.3-27.008,32.304v74.478c0,3.918-3.175,7.096-7.094,7.096h-34.082c-3.918,0-7.096-3.177-7.096-7.096V224.234 c0-3.918,3.177-7.096,7.096-7.096h34.082c3.918,0,7.094,3.177,7.094,7.096v12.009c8.054-12.085,20.023-21.416,45.502-21.416 c56.425,0,56.105,52.717,56.105,81.686v66.627H371.773z"/><path style="fill:#D1D1D1;" d="M376.023,109.468H255.427v107.67h7.647c3.918,0,7.094,3.177,7.094,7.096v12.009 c8.054-12.085,20.023-21.416,45.503-21.416c56.425,0,56.105,52.717,56.105,81.686v66.625c0,3.918-3.175,7.096-7.09,7.096h-35.242 c-3.915,0-7.092-3.177-7.092-7.096v-64.574c0-9.63,2.826-42.21-25.172-42.21c-21.719,0-26.124,22.3-27.008,32.304v74.478 c0,3.918-3.175,7.096-7.094,7.096h-7.647v32.301h120.596c14.639,0,26.51-11.871,26.51-26.51V135.978 C402.533,121.335,390.662,109.468,376.023,109.468z"/></symbol><symbol id="facebook" viewBox="0 0 512.002 512.002"><title>facebook</title><circle style="fill:#4E598F;" cx="256.001" cy="256" r="256"/><path style="fill:#364270;" d="M511.596,241.7L391.019,121.085c-1.998,0.605-6.982-1.714-9.173-1.274 c-51.717,8.62-101.71,0-151.704,13.791c-24.135,6.896-25.859,36.202-34.478,55.165c-12.067,34.478-10.343,72.404-25.859,105.158 c-10.343,22.411-34.478,36.202-43.098,62.061c-2.875,10.785-2.705,24.379-5.956,34.69l120.98,120.922 c4.725,0.26,9.48,0.403,14.269,0.403c141.384,0,256-114.616,256-256C512.001,251.201,511.858,246.434,511.596,241.7z"/><g> <path style="fill:#FFFFFF;" d="M363.043,109.466H148.958c-21.809,0-39.49,17.68-39.49,39.49v214.085 c0,21.811,17.68,39.49,39.49,39.49h105.584l0.183-104.722h-27.21c-3.536,0-6.406-2.86-6.418-6.396l-0.133-33.759 c-0.014-3.553,2.867-6.444,6.42-6.444h27.162v-32.618c0-37.852,23.118-58.463,56.884-58.463h27.71c3.543,0,6.42,2.874,6.42,6.42 v28.463c0,3.546-2.874,6.42-6.416,6.42l-17.006,0.01c-18.363,0-21.921,8.725-21.921,21.533v28.239h40.351 c3.848,0,6.83,3.358,6.375,7.173l-4.001,33.759c-0.381,3.232-3.122,5.665-6.375,5.665h-36.168l-0.183,104.726h62.826 c21.809,0,39.49-17.682,39.49-39.491v-214.09C402.533,127.147,384.852,109.466,363.043,109.466L363.043,109.466z"/> <polygon style="fill:#FFFFFF;" points="254.542,402.53 254.725,297.808 254.277,297.808 254.277,402.53 "/> </g><path style="fill:#D1D1D1;" d="M363.043,109.466H254.277v141.741h0.269V218.59c0-37.852,23.118-58.463,56.884-58.463h27.71 c3.543,0,6.42,2.874,6.42,6.42v28.463c0,3.546-2.874,6.42-6.416,6.42l-17.006,0.01c-18.363,0-21.921,8.725-21.921,21.533v28.238 h40.351c3.848,0,6.83,3.358,6.375,7.173l-4.001,33.759c-0.381,3.232-3.122,5.665-6.375,5.665h-36.168l-0.183,104.726h62.826 c21.809,0,39.49-17.682,39.49-39.491V148.956C402.533,127.147,384.852,109.466,363.043,109.466z"/></symbol><symbol id="gmail" viewBox="0 0 512 512"><title>gmail</title><g> <polygon style="fill:#F2F2F2;" points="484.973,122.808 452.288,451.017 59.712,451.017 33.379,129.16 256,253.802 "/> <polygon style="fill:#F2F2F2;" points="473.886,60.983 256,265.659 38.114,60.983 256,60.983 "/> </g><path style="fill:#F14336;" d="M59.712,155.493v295.524H24.139C10.812,451.017,0,440.206,0,426.878V111.967l39,1.063L59.712,155.493 z"/><path style="fill:#D32E2A;" d="M512,111.967v314.912c0,13.327-10.812,24.139-24.152,24.139h-35.56V155.493l19.692-46.525 L512,111.967z"/><path style="fill:#F14336;" d="M512,85.122v26.845l-59.712,43.526L256,298.561L59.712,155.493L0,111.967V85.122 c0-13.327,10.812-24.139,24.139-24.139h13.975L256,219.792L473.886,60.983h13.962C501.188,60.983,512,71.794,512,85.122z"/><polygon style="fill:#D32E2A;" points="59.712,155.493 0,146.235 0,111.967 "/></symbol><symbol id="github" viewBox="0 0 496 496"><title>github</title><path id="SVGCleanerId_0" style="fill:#3E77BF;" d="M247.992,5.163C111.048,5.163,0,116.627,0,254.163 c0,109.992,71.048,203.32,169.632,236.24c12.392,2.296,16.912-5.392,16.912-12c0-5.904-0.216-21.56-0.336-42.344 c-69,15.064-83.552-33.376-83.552-33.376c-11.264-28.768-27.52-36.408-27.52-36.408c-22.528-15.456,1.696-15.16,1.696-15.16 c24.88,1.752,37.976,25.672,37.976,25.672c22.144,38.048,58.064,27.048,72.192,20.672c2.232-16.08,8.656-27.064,15.736-33.28 c-55.056-6.296-112.944-27.64-112.944-123.04c0-27.176,9.656-49.408,25.52-66.832c-2.568-6.296-11.072-31.6,2.416-65.872 c0,0,20.832-6.688,68.2,25.52c19.784-5.52,41-8.28,62.096-8.392c21.048,0.112,42.28,2.864,62.096,8.392 c47.328-32.208,68.128-25.52,68.128-25.52c13.52,34.272,5.016,59.576,2.456,65.872c15.904,17.424,25.504,39.648,25.504,66.832 c0,95.64-57.984,116.68-113.232,122.856c8.904,7.688,16.832,22.872,16.832,46.112c0,33.296-0.296,60.128-0.296,68.296 c0,6.672,4.472,14.424,17.048,11.968C425.016,457.387,496,364.123,496,254.163C496,116.627,384.952,5.163,247.992,5.163z"/><g> <path id="SVGCleanerId_0_1_" style="fill:#3E77BF;" d="M247.992,5.163C111.048,5.163,0,116.627,0,254.163 c0,109.992,71.048,203.32,169.632,236.24c12.392,2.296,16.912-5.392,16.912-12c0-5.904-0.216-21.56-0.336-42.344 c-69,15.064-83.552-33.376-83.552-33.376c-11.264-28.768-27.52-36.408-27.52-36.408c-22.528-15.456,1.696-15.16,1.696-15.16 c24.88,1.752,37.976,25.672,37.976,25.672c22.144,38.048,58.064,27.048,72.192,20.672c2.232-16.08,8.656-27.064,15.736-33.28 c-55.056-6.296-112.944-27.64-112.944-123.04c0-27.176,9.656-49.408,25.52-66.832c-2.568-6.296-11.072-31.6,2.416-65.872 c0,0,20.832-6.688,68.2,25.52c19.784-5.52,41-8.28,62.096-8.392c21.048,0.112,42.28,2.864,62.096,8.392 c47.328-32.208,68.128-25.52,68.128-25.52c13.52,34.272,5.016,59.576,2.456,65.872c15.904,17.424,25.504,39.648,25.504,66.832 c0,95.64-57.984,116.68-113.232,122.856c8.904,7.688,16.832,22.872,16.832,46.112c0,33.296-0.296,60.128-0.296,68.296 c0,6.672,4.472,14.424,17.048,11.968C425.016,457.387,496,364.123,496,254.163C496,116.627,384.952,5.163,247.992,5.163z"/> </g><g> <path style="fill:#114C82;" d="M378.496,109.131c13.128,33.904,4.752,58.928,2.2,65.176c15.904,17.424,25.504,39.648,25.504,66.832 c0,95.64-57.984,116.68-113.232,122.856c8.904,7.688,16.832,22.872,16.832,46.112c0,33.296-0.296,60.128-0.296,68.296 c0,6.672,4.472,14.424,17.048,11.968C425.016,457.387,496,364.123,496,254.163c0-29.56-5.152-57.896-14.568-84.2 C447.24,133.963,409.184,109.987,378.496,109.131z"/> <path style="fill:#114C82;" d="M192.976,377.323c2.784-5.616,6.184-9.984,9.76-13.144c-30.176-3.456-61.168-11.512-83.048-33.744 C136.52,358.451,163.928,371.195,192.976,377.323z"/> </g><path style="fill:#6CA9EA;" d="M12.912,270.947c0-137.536,111.048-249,247.992-249c76.04,0,144.056,34.392,189.536,88.488 C405.52,46.755,331.616,5.163,247.992,5.163C111.048,5.163,0,116.627,0,254.163c0,61.32,22.12,117.424,58.752,160.792 C29.944,374.291,12.912,324.643,12.912,270.947z"/><path style="fill:#083E66;" d="M322.712,426.899c0-23.232-7.928-38.44-16.832-46.128c55.248-6.16,113.24-27.216,113.24-122.848 c0-27.184-9.6-49.4-25.52-66.824c2.576-6.296,11.096-31.608-2.456-65.872c0,0-2.576-0.792-7.896-0.488 c5.808,25.84-0.416,44.32-2.552,49.568c15.904,17.424,25.504,39.648,25.504,66.832c0,95.64-57.984,116.68-113.232,122.856 c8.904,7.688,16.832,22.872,16.832,46.112c0,33.296-0.296,60.128-0.296,68.296c0,5.872,3.496,12.568,12.92,12.408 C322.488,479.555,322.712,455.659,322.712,426.899z"/><path style="fill:#114C82;" d="M117.464,423.995c5.208,10.72,22.712,36.4,68.888,30.992c-0.064-5.648-0.112-11.976-0.144-18.928 C150.584,443.835,129.552,434.667,117.464,423.995z"/><path style="fill:#6CA9EA;" d="M126.368,391.387c-1.592-2.4-4.576-6.472-8.904-10.544 C120.272,385.011,123.256,388.507,126.368,391.387z"/></symbol></svg>